<svg xmlns="http://www.w3.org/2000/svg" viewBox="0 0 297 297" aria-hidden="true">
	<g transform="matrix(2.0298216,0.58459386,-0.58459386,2.0298216,-385.26,-261.9178)">
		<path
			fill="#ffffff"
			stroke="#ffffff"
			stroke-width="2"
			fill-rule="evenodd"
			clip-rule="evenodd"
			d="m 321.92,65.102 c -3.456,3.384 -6.264,8.424 -10.296,9.504 -2.952,0.792 -4.392,-2.592 -5.76,-5.616 -0.647,2.592 -3.744,9.864 -6.912,10.224 -4.176,0.432 -6.192,-5.184 -8.352,-7.992 -0.576,4.464 -1.296,25.2 -7.2,27 -8.424,2.52 -7.416,-17.856 -7.488,-17.568 -0.072,0.36 -3.528,2.016 -6.408,0.504 -5.04,-2.592 -8.136,-11.808 -9.72,-14.472 -1.296,6.552 -1.296,13.392 -2.448,15.408 -1.224,2.16 -4.68,0.792 -6.552,0.792 1.728,5.904 3.6,12.6 1.368,15.408 -2.304,2.88 -4.392,3.312 -7.848,2.952 5.472,2.952 14.544,20.017 14.04,23.903 -0.504,3.889 -12.312,5.113 -16.704,5.328 4.68,2.521 8.352,4.465 12.744,6.984 4.392,2.519 8.208,6.408 11.88,7.849 3.672,1.512 7.92,1.728 10.152,2.663 -0.864,4.32 -3.168,9.793 -5.256,12.961 -2.088,3.168 -4.824,8.207 -8.64,8.783 l 2.088,6.192 c 3.24,0.216 3.816,-3.528 4.464,-5.472 0.648,-1.944 9.648,-16.92 12.024,-21.169 0,0 6.336,6.696 9.288,8.353 3.024,1.729 8.784,2.736 13.175,4.824 4.393,2.016 6.769,3.672 10.873,5.615 -2.305,-4.031 -7.272,-11.088 -6.049,-14.328 1.225,-3.312 7.2,-4.319 13.176,-4.464 6.049,-0.216 13.896,0.792 17.353,0.864 -2.232,-3.239 -4.68,-4.607 -4.248,-8.136 0.359,-3.528 13.248,-7.128 13.248,-7.128 0,0 -3.096,-2.952 -1.872,-5.904 1.152,-2.951 7.416,-7.488 11.808,-10.656 -3.672,0.288 -12.888,1.296 -17.279,-0.36 -4.393,-1.584 -4.536,-5.832 -4.464,-5.832 0.071,0 -16.272,12.456 -18.217,4.392 -1.583,-6.408 13.537,-18 16.992,-21.168 -4.608,-0.432 -11.592,0.576 -11.663,-2.88 -0.145,-5.04 5.256,-11.736 5.256,-11.736 0,0 -6.625,0.792 -7.633,-1.44 -1.656,-3.67 0,-9.07 1.08,-14.182 z"
		/>
		<path
			fill="#1d4f86"
			fill-rule="evenodd"
			clip-rule="evenodd"
			d="m 320.84,79.286 c 1.008,2.232 7.633,1.44 7.633,1.44 0,0 -5.4,6.696 -5.256,11.736 0.071,3.456 7.055,2.448 11.663,2.88 -3.455,3.168 -18.575,14.76 -16.992,21.168 1.944,8.064 18.288,-4.392 18.217,-4.392 -0.072,0 0.071,4.248 4.464,5.832 4.392,1.656 13.607,0.648 17.279,0.36 -4.392,3.167 -10.655,7.705 -11.808,10.656 -1.224,2.952 1.872,5.904 1.872,5.904 0,0 -12.889,3.6 -13.248,7.128 -0.432,3.528 2.016,4.896 4.248,8.136 -3.456,-0.072 -11.304,-1.08 -17.353,-0.864 -5.976,0.145 -11.951,1.152 -13.176,4.464 -1.224,3.24 3.744,10.297 6.049,14.328 -4.104,-1.943 -6.48,-3.6 -10.873,-5.615 -4.392,-2.088 -10.151,-3.096 -13.175,-4.824 -2.952,-1.656 -9.288,-8.353 -9.288,-8.353 -2.376,4.249 -11.376,19.225 -12.024,21.169 -0.648,1.943 -1.224,5.688 -4.464,5.472 l -2.088,-6.192 c 3.816,-0.576 6.552,-5.615 8.64,-8.783 2.088,-3.168 4.392,-8.641 5.256,-12.961 -2.232,-0.936 -6.48,-1.151 -10.152,-2.663 -3.672,-1.44 -7.488,-5.329 -11.88,-7.849 -4.392,-2.52 -8.064,-4.464 -12.744,-6.984 4.392,-0.215 16.2,-1.439 16.704,-5.328 0.504,-3.887 -8.568,-20.951 -14.04,-23.903 3.456,0.36 5.544,-0.072 7.848,-2.952 2.232,-2.808 0.36,-9.504 -1.368,-15.408 1.872,0 5.328,1.368 6.552,-0.792 1.152,-2.016 1.152,-8.856 2.448,-15.408 1.584,2.664 4.68,11.88 9.72,14.472 2.88,1.512 6.336,-0.144 6.408,-0.504 0.072,-0.288 -0.936,20.088 7.488,17.568 5.904,-1.8 6.624,-22.536 7.2,-27 2.16,2.808 4.176,8.424 8.352,7.992 3.168,-0.36 6.265,-7.632 6.912,-10.224 1.368,3.024 2.808,6.408 5.76,5.616 4.032,-1.08 6.84,-6.12 10.296,-9.504 -1.08,5.11 -2.736,10.51 -1.08,14.182 z m -39.852,65.694 0.072,0.144 0.216,-0.072 0.144,0.072 v 0 l 28.008,17.784 0.288,-0.432 -27.648,-17.641 26.424,-9.288 -0.072,0.072 25.416,12.168 0.288,-0.504 -24.984,-11.952 17.856,-6.264 17.928,5.184 0.072,-0.504 -17.064,-4.968 21.168,-7.416 -0.144,-0.504 -21.168,7.344 8.352,-12.672 -0.504,-0.288 -8.712,13.32 -45.072,15.695 17.784,-33.984 29.521,-12.528 -0.217,-0.576 -28.872,12.312 9.864,-19.008 15.337,-6.84 -0.288,-0.504 -14.616,6.552 7.271,-13.968 -0.504,-0.288 -7.344,14.04 -2.52,-14.904 -0.577,0.144 2.665,15.624 -9.792,18.864 -6.48,-31.536 -0.576,0.144 6.624,32.184 -17.784,34.056 -7.128,-25.342 0.144,-0.288 -0.288,-0.144 -4.392,-15.696 5.328,-18.864 -0.576,-0.144 -5.04,18 -7.272,-25.992 -0.504,0.144 7.056,25.2 -13.536,-14.976 -0.432,0.36 14.328,15.84 4.32,15.624 -22.248,-14.904 -0.36,0.432 22.824,15.336 7.2,25.56 -30.096,-12.456 -0.288,0.504 30.528,12.601 v 0.072 z"
		/>
	</g>
	<text
		x="1.0180449"
		y="245.14761"
		transform="matrix(0.81820359,0,0,0.97423007,-0.19774721,34.331251)"
		fill="#1d4f86"
		fill-opacity="0.28"
		font-family="Arial, sans-serif"
		font-size="462.874"
		font-weight="700"
	>
		w
	</text>
</svg>
